<?xml version="1.0" encoding="UTF-8"?>
<svg width="100px" height="100px" viewBox="0 0 100 100" version="1.1" xmlns="http://www.w3.org/2000/svg" xmlns:xlink="http://www.w3.org/1999/xlink" style="background: black">
    <style>
    /* <![CDATA[ */
        #closing-group path {
            background: black;
            transform-origin: center center;
            animation:
                2s linear infinite closing-anim-1,
                1s linear infinite closing-anim-3;
        }

        #closing-group {
            transform-origin: center center;
            animation: 10s linear infinite closing-anim-2;
        }

        @keyframes closing-anim-1 {
            0% {
                fill: #ceb4ff;
            }
            25% {
                fill: #a2d39b;
            }
            50% {
                fill: #b4d0e7;
            }
            75% {
                fill: #ffcb95;
            }
            100% {
                fill: #ceb4ff;
            }
        }

        @keyframes closing-anim-2 {
            from {
                transform: rotate(0);
            }
            to {
                transform: rotate(360deg);
            }
        }

        @keyframes closing-anim-3 {
            0% {
                transform: scale(0.5);
            }
            50% {
                transform: scale(1);
            }

            100% {
                transform: scale(0.5);
            }
        }
    /* ]]> */
    </style>

    <g id="closing-group" stroke="none" stroke-width="1" fill="none" fill-rule="evenodd">
        <rect fill="#000000" x="0" y="0" width="100" height="100"></rect>
        <path d="M8.75,40.73 C7.22,40.73 6.275,40.115 5.78,39.125 L5.585,40.52 L2.885,40.52 L2.885,29 L5.915,29 L5.915,33.23 C6.455,32.21 7.46,31.64 8.81,31.64 C11.06,31.64 12.65,33.08 12.65,36.05 L12.65,36.215 C12.65,39.14 11,40.73 8.75,40.73 Z M7.715,38.21 C8.915,38.21 9.56,37.58 9.56,36.215 L9.56,36.08 C9.56,34.76 8.87,34.085 7.73,34.085 C6.575,34.085 5.855,34.82 5.855,36.065 L5.855,36.185 C5.855,37.55 6.545,38.21 7.715,38.21 Z M20.225,40.52 L19.925,38.825 C19.49,39.98 18.53,40.715 17,40.715 C14.84,40.715 13.775,39.395 13.775,37.13 L13.775,31.82 L16.85,31.82 L16.85,36.26 C16.85,37.43 17.15,38.105 18.245,38.105 C19.295,38.105 19.715,37.34 19.715,36.11 L19.715,31.82 L22.835,31.82 L22.835,40.52 L20.225,40.52 Z M30.845,37.835 L30.845,40.52 L29.045,40.52 C26.165,40.52 25.43,39.47 25.43,36.605 L25.43,34.445 L23.735,34.445 L23.735,31.985 C24.17,31.97 24.5,31.94 24.845,31.865 C25.385,31.775 25.595,31.535 25.73,30.89 C25.82,30.5 25.85,29.975 25.865,29.555 L28.325,29.555 L28.325,31.82 L30.845,31.82 L30.845,34.445 L28.325,34.445 L28.325,36.14 C28.325,37.64 28.565,37.835 29.915,37.835 L30.845,37.835 Z M42.515,37.835 L42.515,40.52 L40.715,40.52 C37.835,40.52 37.1,39.47 37.1,36.605 L37.1,34.445 L35.405,34.445 L35.405,31.985 C35.84,31.97 36.17,31.94 36.515,31.865 C37.055,31.775 37.265,31.535 37.4,30.89 C37.49,30.5 37.52,29.975 37.535,29.555 L39.995,29.555 L39.995,31.82 L42.515,31.82 L42.515,34.445 L39.995,34.445 L39.995,36.14 C39.995,37.64 40.235,37.835 41.585,37.835 L42.515,37.835 Z M46.73,36.29 L46.73,40.52 L43.67,40.52 L43.67,29 L46.715,29 L46.715,33.245 C47.255,32.24 48.245,31.61 49.61,31.61 C51.8,31.61 52.88,32.93 52.88,35.195 L52.88,40.52 L49.79,40.52 L49.79,36.11 C49.79,34.955 49.46,34.205 48.335,34.205 C47.195,34.205 46.73,34.955 46.73,36.29 Z M59.105,33.845 C57.95,33.845 57.29,34.355 57.08,35.27 L60.98,35.27 C60.815,34.325 60.23,33.845 59.105,33.845 Z M63.965,37.76 C63.38,39.71 61.805,40.775 58.97,40.775 C55.415,40.775 54.02,39.005 54.02,36.38 L54.02,36.23 C54.02,33.47 55.835,31.61 59.105,31.61 C62.51,31.61 64.025,33.575 64.025,36.08 L64.025,36.995 L57.05,36.995 C57.215,37.97 57.86,38.495 59.105,38.495 C60.005,38.495 60.44,38.21 60.68,37.76 L63.965,37.76 Z M66.425,43.97 L64.895,43.97 L64.895,41.465 L66.11,41.465 C67.19,41.465 67.505,41.21 67.895,40.355 L68.015,40.085 L64.25,31.82 L67.505,31.82 L69.575,36.86 L71.615,31.82 L74.78,31.82 L70.76,40.865 C69.545,43.55 68.93,43.97 66.425,43.97 Z M75.74,34.73 L75.65,33.53 C76.445,33.455 76.82,33.14 76.91,32.405 C76.835,32.42 76.76,32.42 76.685,32.42 C75.725,32.42 75.395,32.24 75.395,31.1 C75.395,30.005 75.8,29.675 76.895,29.675 C78.035,29.675 78.425,30.125 78.425,31.58 C78.425,33.5 77.57,34.595 75.74,34.73 Z M83.195,40.52 L80.015,40.52 L80.015,31.82 L82.55,31.82 L82.94,33.89 C83.255,32.39 84.2,31.7 85.925,31.7 L86.6,31.7 L86.6,34.85 L85.385,34.85 C83.615,34.85 83.195,35.42 83.195,37.115 L83.195,40.52 Z M92.42,33.845 C91.265,33.845 90.605,34.355 90.395,35.27 L94.295,35.27 C94.13,34.325 93.545,33.845 92.42,33.845 Z M97.28,37.76 C96.695,39.71 95.12,40.775 92.285,40.775 C88.73,40.775 87.335,39.005 87.335,36.38 L87.335,36.23 C87.335,33.47 89.15,31.61 92.42,31.61 C95.825,31.61 97.34,33.575 97.34,36.08 L97.34,36.995 L90.365,36.995 C90.53,37.97 91.175,38.495 92.42,38.495 C93.32,38.495 93.755,38.21 93.995,37.76 L97.28,37.76 Z M10.985,55.52 L9.23,50.885 L7.295,55.52 L4.535,55.52 L2,46.82 L5.03,46.82 L6.335,51.8 L8.27,46.82 L10.265,46.82 L12.08,51.815 L13.655,46.82 L16.64,46.82 L13.67,55.52 L10.985,55.52 Z M21.215,53.675 C22.505,53.675 23.48,52.775 23.48,51.86 L23.48,51.5 C23.225,51.725 22.76,51.845 22.07,51.965 C21.17,52.085 20.795,52.175 20.525,52.34 C20.285,52.505 20.165,52.685 20.165,52.97 L20.165,52.985 C20.165,53.435 20.495,53.675 21.215,53.675 Z M23.885,55.52 L23.57,53.93 C23,54.995 21.86,55.775 19.985,55.775 C17.915,55.775 16.895,54.905 16.895,53.39 C16.895,52.355 17.33,51.65 18.14,51.2 C18.89,50.78 19.61,50.645 21.335,50.435 C22.955,50.27 23.465,50.135 23.465,49.625 C23.465,49.175 23.135,48.83 22.055,48.83 C20.855,48.83 20.345,49.25 20.3,50 L17.165,50 C17.345,47.855 18.995,46.61 21.995,46.61 C25.145,46.61 26.465,47.81 26.465,50.135 L26.465,55.52 L23.885,55.52 Z M29.15,58.97 L27.62,58.97 L27.62,56.465 L28.835,56.465 C29.915,56.465 30.23,56.21 30.62,55.355 L30.74,55.085 L26.975,46.82 L30.23,46.82 L32.3,51.86 L34.34,46.82 L37.505,46.82 L33.485,55.865 C32.27,58.55 31.655,58.97 29.15,58.97 Z M46.685,55.775 C43.34,55.775 41.75,54.185 41.75,51.32 L41.75,51.17 C41.75,48.275 43.745,46.61 46.715,46.61 C49.67,46.61 51.53,47.975 51.695,50.585 L51.695,50.6 L48.47,50.6 L48.47,50.57 C48.335,49.565 47.78,49.115 46.73,49.115 C45.56,49.115 44.87,49.79 44.87,51.17 L44.87,51.305 C44.87,52.565 45.53,53.225 46.715,53.225 C47.78,53.225 48.35,52.745 48.47,51.725 L48.47,51.71 L51.695,51.71 L51.695,51.755 C51.575,54.41 49.73,55.775 46.685,55.775 Z M57.35,55.775 C54.005,55.775 52.415,54.185 52.415,51.32 L52.415,51.17 C52.415,48.275 54.395,46.61 57.38,46.61 C60.41,46.61 62.345,48.275 62.345,51.17 L62.345,51.32 C62.345,54.155 60.515,55.775 57.35,55.775 Z M57.38,53.225 C58.58,53.225 59.255,52.58 59.255,51.305 L59.255,51.17 C59.255,49.805 58.61,49.115 57.395,49.115 C56.21,49.115 55.505,49.79 55.505,51.17 L55.505,51.305 C55.505,52.565 56.18,53.225 57.38,53.225 Z M68.135,55.775 C64.79,55.775 63.2,54.185 63.2,51.32 L63.2,51.17 C63.2,48.275 65.18,46.61 68.165,46.61 C71.195,46.61 73.13,48.275 73.13,51.17 L73.13,51.32 C73.13,54.155 71.3,55.775 68.135,55.775 Z M68.165,53.225 C69.365,53.225 70.04,52.58 70.04,51.305 L70.04,51.17 C70.04,49.805 69.395,49.115 68.18,49.115 C66.995,49.115 66.29,49.79 66.29,51.17 L66.29,51.305 C66.29,52.565 66.965,53.225 68.165,53.225 Z M77.435,55.52 L74.33,55.52 L74.33,44 L77.435,44 L77.435,55.52 Z M83.705,48.845 C82.55,48.845 81.89,49.355 81.68,50.27 L85.58,50.27 C85.415,49.325 84.83,48.845 83.705,48.845 Z M88.565,52.76 C87.98,54.71 86.405,55.775 83.57,55.775 C80.015,55.775 78.62,54.005 78.62,51.38 L78.62,51.23 C78.62,48.47 80.435,46.61 83.705,46.61 C87.11,46.61 88.625,48.575 88.625,51.08 L88.625,51.995 L81.65,51.995 C81.815,52.97 82.46,53.495 83.705,53.495 C84.605,53.495 85.04,53.21 85.28,52.76 L88.565,52.76 Z M92.975,55.52 L89.795,55.52 L89.795,46.82 L92.33,46.82 L92.72,48.89 C93.035,47.39 93.98,46.7 95.705,46.7 L96.38,46.7 L96.38,49.85 L95.165,49.85 C93.395,49.85 92.975,50.42 92.975,52.115 L92.975,55.52 Z M9.365,67.835 L9.365,70.52 L7.565,70.52 C4.685,70.52 3.95,69.47 3.95,66.605 L3.95,64.445 L2.255,64.445 L2.255,61.985 C2.69,61.97 3.02,61.94 3.365,61.865 C3.905,61.775 4.115,61.535 4.25,60.89 C4.34,60.5 4.37,59.975 4.385,59.555 L6.845,59.555 L6.845,61.82 L9.365,61.82 L9.365,64.445 L6.845,64.445 L6.845,66.14 C6.845,67.64 7.085,67.835 8.435,67.835 L9.365,67.835 Z M13.58,66.29 L13.58,70.52 L10.52,70.52 L10.52,59 L13.565,59 L13.565,63.245 C14.105,62.24 15.095,61.61 16.46,61.61 C18.65,61.61 19.73,62.93 19.73,65.195 L19.73,70.52 L16.64,70.52 L16.64,66.11 C16.64,64.955 16.31,64.205 15.185,64.205 C14.045,64.205 13.58,64.955 13.58,66.29 Z M25.1,68.675 C26.39,68.675 27.365,67.775 27.365,66.86 L27.365,66.5 C27.11,66.725 26.645,66.845 25.955,66.965 C25.055,67.085 24.68,67.175 24.41,67.34 C24.17,67.505 24.05,67.685 24.05,67.97 L24.05,67.985 C24.05,68.435 24.38,68.675 25.1,68.675 Z M27.77,70.52 L27.455,68.93 C26.885,69.995 25.745,70.775 23.87,70.775 C21.8,70.775 20.78,69.905 20.78,68.39 C20.78,67.355 21.215,66.65 22.025,66.2 C22.775,65.78 23.495,65.645 25.22,65.435 C26.84,65.27 27.35,65.135 27.35,64.625 C27.35,64.175 27.02,63.83 25.94,63.83 C24.74,63.83 24.23,64.25 24.185,65 L21.05,65 C21.23,62.855 22.88,61.61 25.88,61.61 C29.03,61.61 30.35,62.81 30.35,65.135 L30.35,70.52 L27.77,70.52 Z M34.925,66.29 L34.925,70.52 L31.805,70.52 L31.805,61.82 L34.43,61.82 L34.715,63.485 C35.21,62.345 36.215,61.61 37.745,61.61 C39.905,61.61 41.075,62.945 41.075,65.21 L41.075,70.52 L37.985,70.52 L37.985,66.095 C37.985,64.895 37.655,64.22 36.53,64.22 C35.375,64.22 34.925,64.955 34.925,66.29 Z M50.585,70.775 C47.57,70.775 46.025,69.515 45.995,66.365 L45.995,66.005 L49.22,66.005 L49.22,66.32 C49.235,67.475 49.58,67.985 50.585,67.985 C51.575,67.985 51.995,67.505 51.995,65.945 L51.995,59.765 L55.19,59.765 L55.19,65.945 C55.19,69.335 53.615,70.775 50.585,70.775 Z M61.58,62.33 L59.765,62.33 L59.765,65.06 L61.595,65.06 C62.84,65.06 63.425,64.64 63.425,63.71 C63.425,62.735 62.825,62.33 61.58,62.33 Z M61.7,67.58 L59.765,67.58 L59.765,70.52 L56.75,70.52 L56.75,59.765 L61.61,59.765 C65.015,59.765 66.5,61.22 66.5,63.695 C66.5,66.185 64.97,67.595 61.7,67.58 Z M75.35,70.52 L75.125,67.865 C74.84,69.65 73.76,70.775 71.645,70.775 C68.825,70.775 67.34,69.185 67.34,65.66 L67.34,64.865 C67.34,61.325 69.47,59.525 72.785,59.525 C75.92,59.525 77.735,60.905 77.93,63.695 L77.93,63.74 L74.63,63.74 C74.51,62.795 74,62.255 72.755,62.255 C71.255,62.255 70.535,63.08 70.535,64.925 L70.535,65.555 C70.52,67.4 71.195,68.165 72.71,68.165 C74,68.165 74.675,67.565 74.825,66.635 L72.425,66.635 L72.425,64.715 L77.93,64.715 L77.93,70.52 L75.35,70.52 Z M83.585,70.775 C80.72,70.775 79.025,69.74 78.68,67.625 L81.905,67.625 C82.115,68.315 82.685,68.615 83.81,68.615 C84.815,68.615 85.205,68.33 85.205,67.895 C85.205,67.385 84.455,67.28 82.895,67.16 C80.6,66.98 79.025,66.515 79.025,64.565 C79.025,62.795 80.495,61.595 83.33,61.595 C86.225,61.595 87.65,62.675 88.085,64.565 L85.01,64.565 C84.845,63.95 84.245,63.665 83.27,63.665 C82.265,63.665 81.95,63.965 81.95,64.355 C81.95,64.835 82.64,64.94 84.23,65.075 C86.63,65.27 88.175,65.765 88.175,67.7 C88.175,69.485 86.735,70.775 83.585,70.775 Z" id="butthey’rewaycoolerthanJPGs" fill="#FFFFFF" fill-rule="nonzero"></path>
    </g>
</svg>
