<?xml version="1.0" encoding="UTF-8"?>
<svg width="100px" height="50px" viewBox="0 0 100 50" version="1.1" xmlns="http://www.w3.org/2000/svg" xmlns:xlink="http://www.w3.org/1999/xlink">
    <g id="Artboard" stroke="none" stroke-width="1" fill="none" fill-rule="evenodd">
        <path d="M12.6308,30.5899 C3.9211,30.5899 0.7981,27.3975 0.347,21.4638 L0.347,21.4291 L8.0157,21.4291 L8.0157,21.4985 C8.2586,23.8234 9.9589,24.8644 12.9778,24.8644 C15.615,24.8644 16.7601,23.9622 16.7601,22.6089 C16.7601,20.8045 14.6087,20.4922 10.2018,19.937 C4.9621,19.243 1.041,17.7509 1.041,12.4765 C1.041,7.7573 4.7886,4.5302 11.9368,4.5302 C19.1544,4.5302 23.0061,7.2021 23.6307,12.9276 L23.6307,12.9623 L16.2743,12.9623 L16.2743,12.9276 C15.9967,10.8456 14.574,10.0475 11.7633,10.0475 C9.1608,10.0475 8.2586,10.9844 8.2586,12.1642 C8.2586,13.7257 10.063,14.1074 14.2964,14.6279 C19.8137,15.3219 23.943,16.8487 23.943,22.2272 C23.943,27.224 20.2995,30.5899 12.6308,30.5899 Z M41.0848,30 L33.4508,30 L24.3941,5.1201 L31.9587,5.1201 L37.3719,21.0127 L42.8545,5.1201 L50.3497,5.1201 L41.0848,30 Z M69.7817,30 L69.2612,23.8581 C68.6019,27.9874 66.1035,30.5899 61.2108,30.5899 C54.6872,30.5899 51.2519,26.9117 51.2519,18.7572 L51.2519,16.9181 C51.2519,8.7289 56.1793,4.5649 63.848,4.5649 C71.1003,4.5649 75.299,7.7573 75.7501,14.2115 L75.7501,14.3156 L68.1161,14.3156 C67.8385,12.1295 66.6587,10.8803 63.7786,10.8803 C60.3086,10.8803 58.643,12.7888 58.643,17.0569 L58.643,18.5143 C58.6083,22.7824 60.1698,24.5521 63.6745,24.5521 C66.6587,24.5521 68.2202,23.1641 68.5672,21.0127 L63.0152,21.0127 L63.0152,16.5711 L75.7501,16.5711 L75.7501,30 L69.7817,30 Z M88.832,30.5899 C82.2043,30.5899 78.2832,28.1956 77.4851,23.3029 L84.9456,23.3029 C85.4314,24.8991 86.75,25.5931 89.3525,25.5931 C91.6774,25.5931 92.5796,24.9338 92.5796,23.9275 C92.5796,22.7477 90.8446,22.5048 87.2358,22.2272 C81.9267,21.8108 78.2832,20.7351 78.2832,16.2241 C78.2832,12.1295 81.6838,9.3535 88.2421,9.3535 C94.9392,9.3535 98.2357,11.8519 99.242,16.2241 L92.1285,16.2241 C91.7468,14.8014 90.3588,14.1421 88.1033,14.1421 C85.7784,14.1421 85.0497,14.8361 85.0497,15.7383 C85.0497,16.8487 86.6459,17.0916 90.3241,17.4039 C95.8761,17.855 99.4502,19.0001 99.4502,23.4764 C99.4502,27.6057 96.119,30.5899 88.832,30.5899 Z" id="SVGs" fill="#000000" fill-rule="nonzero"></path>
        <path d="M4.354,43.278 C5.558,43.278 6.468,42.438 6.468,41.584 L6.468,41.248 C6.23,41.458 5.796,41.57 5.152,41.682 C4.312,41.794 3.962,41.878 3.71,42.032 C3.486,42.186 3.374,42.354 3.374,42.62 L3.374,42.634 C3.374,43.054 3.682,43.278 4.354,43.278 Z M6.846,45 L6.552,43.516 C6.02,44.51 4.956,45.238 3.206,45.238 C1.274,45.238 0.322,44.426 0.322,43.012 C0.322,42.046 0.728,41.388 1.484,40.968 C2.184,40.576 2.856,40.45 4.466,40.254 C5.978,40.1 6.454,39.974 6.454,39.498 C6.454,39.078 6.146,38.756 5.138,38.756 C4.018,38.756 3.542,39.148 3.5,39.848 L0.574,39.848 C0.742,37.846 2.282,36.684 5.082,36.684 C8.022,36.684 9.254,37.804 9.254,39.974 L9.254,45 L6.846,45 Z M13.58,45 L10.612,45 L10.612,36.88 L12.978,36.88 L13.342,38.812 C13.636,37.412 14.518,36.768 16.128,36.768 L16.758,36.768 L16.758,39.708 L15.624,39.708 C13.972,39.708 13.58,40.24 13.58,41.822 L13.58,45 Z M22.19,38.77 C21.112,38.77 20.496,39.246 20.3,40.1 L23.94,40.1 C23.786,39.218 23.24,38.77 22.19,38.77 Z M26.726,42.424 C26.18,44.244 24.71,45.238 22.064,45.238 C18.746,45.238 17.444,43.586 17.444,41.136 L17.444,40.996 C17.444,38.42 19.138,36.684 22.19,36.684 C25.368,36.684 26.782,38.518 26.782,40.856 L26.782,41.71 L20.272,41.71 C20.426,42.62 21.028,43.11 22.19,43.11 C23.03,43.11 23.436,42.844 23.66,42.424 L26.726,42.424 Z M33.138,36.39 C31.906,36.39 31.444,36.054 31.444,35.046 C31.444,34.038 32.018,33.688 33.138,33.688 C34.244,33.688 34.832,34.038 34.832,35.046 C34.832,36.012 34.286,36.39 33.138,36.39 Z M29.932,48.612 L29.932,46.204 L30.576,46.204 C31.5,46.204 31.668,46.036 31.668,44.944 L31.668,36.922 C31.822,37.062 32.648,37.132 33.138,37.132 C33.628,37.132 34.426,37.048 34.594,36.922 L34.594,45.49 C34.594,47.996 33.908,48.612 31.22,48.612 L29.932,48.612 Z M41.986,45 L41.706,43.418 C41.3,44.496 40.404,45.182 38.976,45.182 C36.96,45.182 35.966,43.95 35.966,41.836 L35.966,36.88 L38.836,36.88 L38.836,41.024 C38.836,42.116 39.116,42.746 40.138,42.746 C41.118,42.746 41.51,42.032 41.51,40.884 L41.51,36.88 L44.422,36.88 L44.422,45 L41.986,45 Z M49.798,45.238 C47.124,45.238 45.542,44.272 45.22,42.298 L48.23,42.298 C48.426,42.942 48.958,43.222 50.008,43.222 C50.946,43.222 51.31,42.956 51.31,42.55 C51.31,42.074 50.61,41.976 49.154,41.864 C47.012,41.696 45.542,41.262 45.542,39.442 C45.542,37.79 46.914,36.67 49.56,36.67 C52.262,36.67 53.592,37.678 53.998,39.442 L51.128,39.442 C50.974,38.868 50.414,38.602 49.504,38.602 C48.566,38.602 48.272,38.882 48.272,39.246 C48.272,39.694 48.916,39.792 50.4,39.918 C52.64,40.1 54.082,40.562 54.082,42.368 C54.082,44.034 52.738,45.238 49.798,45.238 Z M61.082,42.494 L61.082,45 L59.402,45 C56.714,45 56.028,44.02 56.028,41.346 L56.028,39.33 L54.446,39.33 L54.446,37.034 C54.852,37.02 55.16,36.992 55.482,36.922 C55.986,36.838 56.182,36.614 56.308,36.012 C56.392,35.648 56.42,35.158 56.434,34.766 L58.73,34.766 L58.73,36.88 L61.082,36.88 L61.082,39.33 L58.73,39.33 L58.73,40.912 C58.73,42.312 58.954,42.494 60.214,42.494 L61.082,42.494 Z M71.974,42.494 L71.974,45 L70.294,45 C67.606,45 66.92,44.02 66.92,41.346 L66.92,39.33 L65.338,39.33 L65.338,37.034 C65.744,37.02 66.052,36.992 66.374,36.922 C66.878,36.838 67.074,36.614 67.2,36.012 C67.284,35.648 67.312,35.158 67.326,34.766 L69.622,34.766 L69.622,36.88 L71.974,36.88 L71.974,39.33 L69.622,39.33 L69.622,40.912 C69.622,42.312 69.846,42.494 71.106,42.494 L71.974,42.494 Z M77.49,38.77 C76.412,38.77 75.796,39.246 75.6,40.1 L79.24,40.1 C79.086,39.218 78.54,38.77 77.49,38.77 Z M82.026,42.424 C81.48,44.244 80.01,45.238 77.364,45.238 C74.046,45.238 72.744,43.586 72.744,41.136 L72.744,40.996 C72.744,38.42 74.438,36.684 77.49,36.684 C80.668,36.684 82.082,38.518 82.082,40.856 L82.082,41.71 L75.572,41.71 C75.726,42.62 76.328,43.11 77.49,43.11 C78.33,43.11 78.736,42.844 78.96,42.424 L82.026,42.424 Z M88.97,45 L87.346,42.76 L85.708,45 L82.306,45 L85.652,40.772 L82.6,36.88 L85.89,36.88 L87.36,38.868 L88.83,36.88 L92.092,36.88 L89.054,40.772 L92.274,45 L88.97,45 Z M98.882,42.494 L98.882,45 L97.202,45 C94.514,45 93.828,44.02 93.828,41.346 L93.828,39.33 L92.246,39.33 L92.246,37.034 C92.652,37.02 92.96,36.992 93.282,36.922 C93.786,36.838 93.982,36.614 94.108,36.012 C94.192,35.648 94.22,35.158 94.234,34.766 L96.53,34.766 L96.53,36.88 L98.882,36.88 L98.882,39.33 L96.53,39.33 L96.53,40.912 C96.53,42.312 96.754,42.494 98.014,42.494 L98.882,42.494 Z" id="arejusttext" fill="#000000" fill-rule="nonzero"></path>
    </g>
</svg>
